<?xml version="1.0" standalone="no"?>
<!DOCTYPE svg PUBLIC "-//W3C//DTD SVG 20010904//EN"
 "http://www.w3.org/TR/2001/REC-SVG-20010904/DTD/svg10.dtd">
<svg version="1.0" xmlns="http://www.w3.org/2000/svg"
 width="360.000000pt" height="360.000000pt" viewBox="0 0 360.000000 360.000000"
 preserveAspectRatio="xMidYMid meet">

<g transform="translate(0.000000,360.000000) scale(0.100000,-0.100000)"
fill="#000000" stroke="none">
<path d="M1045 2948 c-163 -58 -234 -219 -163 -370 36 -77 104 -142 218 -210
162 -96 209 -164 210 -301 0 -44 -9 -122 -19 -175 -11 -54 -22 -147 -26 -209
-5 -98 -4 -113 11 -121 22 -12 154 17 249 54 58 23 85 28 160 28 125 -1 308
-47 432 -111 108 -55 116 -53 133 36 19 100 8 168 -35 220 -14 16 -25 32 -25
35 0 13 70 36 107 36 41 0 58 -10 153 -83 75 -57 150 -82 245 -82 95 0 130 21
170 100 28 55 30 68 30 165 0 92 -3 112 -26 160 -44 93 -108 154 -218 208 -94
46 -98 47 -208 50 -131 5 -130 4 -174 114 -99 241 -221 355 -395 366 -93 6
-205 -19 -290 -64 -35 -19 -72 -34 -82 -34 -9 0 -55 35 -101 76 -108 98 -163
124 -256 123 -38 0 -83 -5 -100 -11z m213 -57 c20 -10 75 -53 122 -95 47 -42
96 -79 109 -83 18 -4 48 6 105 35 96 49 155 64 256 64 165 1 273 -93 369 -321
25 -57 55 -110 72 -127 29 -28 34 -29 112 -26 96 3 162 -14 260 -65 170 -89
240 -282 165 -456 -26 -59 -57 -77 -136 -77 -90 0 -150 23 -236 89 -97 75
-131 87 -200 72 -28 -6 -64 -20 -80 -31 -27 -17 -32 -18 -60 -3 l-30 16 29 24
c17 13 53 34 81 48 71 34 328 116 389 125 l50 7 -46 21 c-97 45 -238 34 -365
-28 -57 -28 -128 -92 -164 -148 l-15 -24 -77 16 c-43 9 -92 16 -111 16 -45 0
-48 5 -32 51 34 97 42 226 12 216 -6 -2 -26 -31 -45 -66 -26 -46 -36 -79 -40
-127 l-5 -64 -51 0 -51 0 0 93 c0 109 -18 176 -72 265 -37 61 -146 182 -164
182 -17 0 -9 -96 17 -195 14 -55 47 -156 74 -224 27 -69 48 -126 47 -127 -1
-1 -45 -6 -99 -10 l-96 -7 2 114 c1 104 -1 119 -25 170 -35 75 -86 124 -195
189 -159 94 -234 188 -234 293 0 107 68 187 185 218 44 12 131 1 173 -20z
m699 -1007 c109 -20 203 -77 239 -145 14 -28 19 -134 8 -175 -6 -21 -8 -20
-92 21 -111 56 -318 106 -430 106 -61 0 -97 -7 -164 -30 -47 -17 -113 -37
-148 -45 l-63 -15 7 82 c3 45 6 99 6 119 0 24 8 46 23 62 21 25 28 26 197 34
195 10 310 6 417 -14z"/>
<path d="M3286 2161 c-15 -17 -16 -25 -4 -87 8 -41 13 -142 13 -249 -1 -147
-5 -200 -23 -287 -55 -265 -172 -501 -347 -702 -319 -365 -803 -550 -1303
-495 -232 25 -512 131 -679 256 l-32 24 19 32 c25 45 33 90 21 131 -14 54
-450 676 -473 676 -10 0 -18 -7 -18 -17 0 -10 88 -144 195 -297 149 -214 192
-283 183 -293 -6 -7 -16 -13 -22 -13 -6 1 -101 127 -210 280 -110 154 -202
280 -205 280 -16 -1 -33 -20 -29 -32 3 -7 94 -136 202 -287 108 -150 196 -276
196 -280 0 -12 -42 -33 -50 -24 -4 4 -92 130 -195 278 -104 149 -193 273 -199
277 -10 7 -36 -8 -36 -21 0 -4 90 -135 199 -291 174 -249 198 -287 185 -300
-12 -12 -16 -12 -28 0 -8 8 -102 134 -209 280 -106 146 -201 266 -210 268 -46
9 -18 -40 179 -309 114 -156 219 -299 233 -317 31 -39 95 -72 140 -72 22 0 49
-12 81 -35 227 -166 518 -272 816 -297 328 -27 667 53 944 220 394 239 652
606 747 1061 22 106 26 153 27 301 1 185 -15 312 -42 343 -20 22 -45 22 -66
-2z"/>
<path d="M1393 1483 c-14 -5 -138 -188 -192 -283 l-32 -55 6 118 c6 104 5 120
-11 138 -22 25 -56 24 -80 -2 -18 -20 -19 -40 -19 -344 0 -303 1 -324 19 -344
23 -25 53 -27 77 -5 14 13 16 28 12 87 -4 64 -2 79 23 132 l28 60 6 -86 c8
-102 31 -154 80 -181 44 -23 84 -23 135 1 41 19 39 23 -16 35 -49 11 -77 43
-89 102 -16 75 -37 124 -68 157 l-26 27 38 78 c21 42 71 127 112 187 41 61 74
120 74 131 0 37 -41 62 -77 47z"/>
<path d="M2016 1411 c-40 -44 -86 -235 -86 -357 0 -55 -15 -77 -77 -108 -42
-21 -59 -20 -76 5 -25 34 -1 93 65 165 29 31 38 49 33 63 -8 25 -23 30 -62 19
-42 -11 -84 -55 -134 -139 -23 -38 -45 -72 -50 -75 -5 -3 -9 27 -9 65 0 61 2
71 18 71 26 0 120 57 137 84 9 13 13 31 9 40 -8 20 -48 21 -65 0 -7 -8 -30
-24 -52 -35 l-39 -20 7 55 c6 48 5 57 -10 62 -26 10 -49 -9 -60 -51 -9 -30
-18 -40 -48 -50 -50 -17 -67 -33 -67 -62 0 -28 25 -41 51 -25 10 7 22 12 25
12 10 0 -4 -59 -28 -118 -25 -63 -33 -56 -43 41 -7 73 -24 94 -59 75 -15 -9
-17 -18 -11 -71 10 -98 32 -165 60 -183 23 -15 27 -15 50 0 14 10 31 28 37 42
l11 24 18 -30 c25 -41 58 -39 100 5 l33 34 18 -30 c38 -62 122 -72 194 -23 23
16 43 22 58 18 23 -5 56 17 56 38 0 24 62 138 76 138 11 0 14 -17 14 -84 0
-64 4 -88 16 -100 21 -21 53 -20 84 3 24 19 24 19 59 -10 21 -17 47 -29 65
-29 30 0 96 35 96 51 0 17 18 9 23 -11 6 -22 39 -27 54 -7 6 6 13 34 17 61 7
55 34 118 53 124 13 4 15 -2 32 -108 8 -53 16 -70 42 -93 40 -37 82 -31 121
16 34 40 48 85 48 158 0 60 -14 83 -47 77 -15 -3 -19 -17 -23 -79 -6 -73 -27
-129 -50 -129 -12 0 -30 66 -30 115 0 49 -16 82 -52 108 -26 20 -30 20 -62 5
-19 -9 -43 -14 -53 -12 -25 7 -53 -20 -53 -51 0 -30 -80 -149 -103 -153 -10
-2 -27 4 -38 14 -18 16 -17 18 29 39 58 27 81 52 88 96 13 80 -71 116 -149 64
-41 -28 -61 -61 -71 -117 -11 -61 -26 -55 -26 10 0 62 -25 112 -56 112 -8 0
-14 1 -14 3 0 1 7 24 15 51 28 92 13 193 -30 210 -30 11 -62 6 -79 -13z m34
-194 c-26 -79 -40 -102 -40 -67 0 32 25 136 41 175 l13 30 4 -38 c2 -21 -6
-65 -18 -100z m310 -116 c0 -11 -48 -51 -61 -51 -15 0 -10 19 11 40 21 21 50
27 50 11z"/>
<path d="M1373 1224 c-6 -17 6 -45 23 -51 21 -7 47 23 40 45 -9 27 -53 30 -63
6z"/>
</g>
</svg>
